<svg fill="none" height="388" viewBox="0 0 476 388" width="476" xmlns="http://www.w3.org/2000/svg" xmlns:xlink="http://www.w3.org/1999/xlink"><filter id="a" color-interpolation-filters="sRGB" filterUnits="userSpaceOnUse" height="387.177" width="475.683" x=".000023" y="0"><feFlood flood-opacity="0" result="BackgroundImageFix"/><feColorMatrix in="SourceAlpha" result="hardAlpha" type="matrix" values="0 0 0 0 0 0 0 0 0 0 0 0 0 0 0 0 0 0 127 0"/><feOffset/><feGaussianBlur stdDeviation="5"/><feComposite in2="hardAlpha" operator="out"/><feColorMatrix type="matrix" values="0 0 0 0 0 0 0 0 0 0 0 0 0 0 0 0 0 0 0.05 0"/><feBlend in2="BackgroundImageFix" mode="normal" result="effect1_dropShadow_30_62"/><feBlend in="SourceGraphic" in2="effect1_dropShadow_30_62" mode="normal" result="shape"/></filter><mask id="b" fill="#fff"><path d="m10.0001 134.386v75.349h331.2969v-75.349h-330.0972z" fill="#fff"/></mask><g filter="url(#a)"><g stroke="#e0e0e0" stroke-linecap="round" stroke-linejoin="round" stroke-width="1.07472"><path d="m18.9095 376.64v-168.76h313.4785v168.76z" fill="#fff"/><path d="m332.706 376.64 126.459-123.682v-173.4791l-126.899 128.0851v169.076z" fill="#f8f8f8"/><path d="m340.638 134.111 124.508-122.826v72.9034l-124.073 125.0096h-.435z" fill="#f0f0f0"/></g><path d="m10.0001 134.386v75.349h331.2969v-75.349h-330.0972z" fill="#f8f8f8"/><path d="m10.0001 134.386h-1.07478c0-.594.48117-1.075 1.07478-1.075zm0 75.349v1.075c-.59361 0-1.07478-.481-1.07478-1.075zm331.2969 0h1.075c0 .594-.481 1.075-1.075 1.075zm0-75.349v-1.075c.594 0 1.075.481 1.075 1.075zm-330.0972 0v-1.075zm-.125 0v75.349h-2.14948v-75.349zm329.1472 75.349v-75.349h2.15v75.349zm-330.2219-1.075h331.2969v2.15h-331.2969zm0-75.349h1.1997v2.15h-1.1997zm1.1997 0h330.0972v2.15h-330.0972z" fill="#e0e0e0" mask="url(#b)"/><path d="m465.145 11.477-125.265 123.568h-329.3426v-.437l124.0706-124.0706h330.537z" fill="#fff" stroke="#e0e0e0" stroke-linecap="round" stroke-linejoin="round" stroke-width="1.07472"/></g></svg>